<?xml version="1.0" standalone="no"?><!DOCTYPE svg PUBLIC "-//W3C//DTD SVG 1.1//EN" "http://www.w3.org/Graphics/SVG/1.1/DTD/svg11.dtd"><svg t="1622708760413" class="icon" viewBox="0 0 1024 1024" version="1.1" xmlns="http://www.w3.org/2000/svg" p-id="1894" width="200" height="200" xmlns:xlink="http://www.w3.org/1999/xlink"><defs><style type="text/css"></style></defs><path d="M661.6 819.2c0-11.2-8-20.8-18.4-20.8H383.2c-10.4 0-18.4 9.6-18.4 20.8v83.2H179.2v62.4h668v-62.4H661.6v-83.2z m268.8-760H95.2c-34.4 0-62.4 28-62.4 62.4v584c0 34.4 28 62.4 62.4 62.4h834.4c34.4 0 62.4-28 62.4-62.4v-584c0.8-34.4-27.2-62.4-61.6-62.4z m0 625.6c0 11.2-9.6 20.8-20.8 20.8H116c-11.2 0-20.8-9.6-20.8-20.8V142.4c0-11.2 9.6-20.8 20.8-20.8h792.8c11.2 0 20.8 9.6 20.8 20.8l0.8 542.4z m-213.6-40h112.8V316H716.8v328.8z m-180.8 0h112.8V215.2H536v429.6z m-339.2 0h112.8V518.4H196.8v126.4z m158.4 0h112.8V417.6H355.2v227.2z" p-id="1895" fill="#84c3c2"></path></svg>