<?xml version="1.0" standalone="no"?><!DOCTYPE svg PUBLIC "-//W3C//DTD SVG 1.1//EN" "http://www.w3.org/Graphics/SVG/1.1/DTD/svg11.dtd"><svg t="1620740251071" class="icon" viewBox="0 0 1024 1024" version="1.1" xmlns="http://www.w3.org/2000/svg" p-id="1480" width="64" height="64" xmlns:xlink="http://www.w3.org/1999/xlink"><defs><style type="text/css"></style></defs><path d="M529 183.1c-16.1-31.5-48.8-53.1-86.6-53.1s-70.5 21.6-86.6 53.1h-38.1c-16.1-31.5-48.8-53.1-86.6-53.1s-70.5 21.6-86.6 53.1h-18.7v711H547v-711h-18z" fill="#335883" p-id="1481"></path><path d="M923.7 891.6l-95.2-612.5c-5.1-34.8-23.3-65.5-51.5-86.6-28.2-21-62.8-29.8-97.6-24.8-34.8 5.1-65.5 23.3-86.6 51.5-10 13.4-17.4 28.6-21.8 44.8v-24.4C571 167 512 108 439.4 108c-42.1 0-79.6 19.8-103.7 50.7C311.6 127.9 274.1 108 232 108c-72.6 0-131.6 59-131.6 131.6v655.9c0 15.4 12.5 27.9 27.9 27.9h759.9c0.8 0 8.4 0 9.1-0.1 7.6-0.3 14.8-3.8 19.8-9.6 5.4-6 7.8-14.1 6.6-22.1z m-292-647.1c11.8-16.1 35.7-27.9 55.7-30.8 20-2.9 42.7 2 63.2 16.6 20.5 14.5 29.6 35.6 32.5 55.6l93 591H701.6l-90.1-568.2c-2.9-20 8.3-48.1 20.2-64.2z m23.8 632.4h-84.4V336.1l84.4 540.8zM147 239.7c0-41.8 30-85.3 85.1-85.3 55 0 80.3 43.5 80.3 85.3V877H147V239.7z m211.6 637.2V239.7c0-41.8 28-85.3 80.9-85.3 52.9 0 84.9 43.5 84.9 85.3V877H358.6z m0 0" fill="" p-id="1482"></path><path d="M193.4 315c-4.1 0-6.9 8-6.8 15.5 0.1 34.5-2.7 123 0.1 141.6 3.1 20.8 10.7-7.3 10.7-31.2 0-16.3 0.3-46.8 1.9-95.8 0.2-5-0.3-30.1-5.9-30.1z" fill="#FFFFFF" p-id="1483"></path><path d="M187.5 502.7a4.9 13.2 0 1 0 9.8 0 4.9 13.2 0 1 0-9.8 0Z" fill="#FFFFFF" p-id="1484"></path></svg>